<svg width="47" height="39" viewBox="0 0 47 39" fill="none" xmlns="http://www.w3.org/2000/svg">
<path id="Subtract" fill-rule="evenodd" clip-rule="evenodd" d="M0 4C0 2.11438 0 1.17157 0.585786 0.585786C1.17157 0 2.11438 0 4 0H14.5475C15.4826 0 15.9502 0 16.3578 0.193876C16.7654 0.387752 17.0605 0.750446 17.6505 1.47583L23.5 8.66665H43.8C44.9201 8.66665 45.4802 8.66665 45.908 8.88463C46.2843 9.07638 46.5903 9.38234 46.782 9.75866C47 10.1865 47 10.7465 47 11.8666V35.8C47 36.9201 47 37.4801 46.782 37.908C46.5903 38.2843 46.2843 38.5902 45.908 38.782C45.4802 39 44.9201 39 43.8 39H3.2C2.0799 39 1.51984 39 1.09202 38.782C0.715695 38.5902 0.409734 38.2843 0.217987 37.908C0 37.4801 0 36.9201 0 35.8V8.66667V8.66665V4ZM22.8221 18.7649L15.7721 25.2649L17.1278 26.7353L22.5 21.7822V32.5001H24.5V21.7822L29.8721 26.7353L31.2278 25.2649L24.1778 18.7649L23.5 18.1399L22.8221 18.7649Z" fill="#AED337"/>
</svg>
